# xmcd CD database file
# Copyright (C) 1993-1998 Ti Kan
#
# Track frame offsets:
#	183
#	26525
#	61198
#	74378
#	95415
#	127035
#	157050
#	187513
#	206638
#	228695
#	239063
#	249533
#	263343
#	286445
#
# Disc length: 4079 seconds
#
# Revision: 0
# Processed by: cddbd v1.4b41PL1 Copyright (c) Steve Scherf et al.
# Submitted via: CDmax 1.5.4
#
DISCID=c70fed0e
DTITLE=Various Artist - The Blues - A Real Summit Meeting (Recorded live at N
DTITLE=ewport in New York)
DYEAR=1900
DGENRE=
TTITLE0='Big Mama' Thornton/Little Red Rooster
TTITLE1='Big Mama' Thornton/Ball And Chain
TTITLE2=Jay McShann/Smooth Sailing
TTITLE3=Jay McShann/Confessin' The Blues
TTITLE4=Clarence 'Gatemouth' Brown/The Drifter
TTITLE5=Clarence 'Gatemouth' Brown/Please Mr. Nixon
TTITLE6=B.B. King/Outside Help
TTITLE7=Eddie 'Cleanhead' Vinson/Cleanhead Blues
TTITLE8=Eddie 'Cleanhead' Vinson/Hold It Right There
TTITLE9=Arthur 'Big Boy' Crudup/That's Alright Now Mama
TTITLE10=LLoyd Glenn/Honky Tonk Train Blues
TTITLE11=LLoyd Glenn/Pine Tops Boogie Woogie
TTITLE12=Muddy Waters/Long Distance Call
TTITLE13=Muddy Waters/Where's My Woman Been
EXTD=
EXTT0=
EXTT1=
EXTT2=
EXTT3=
EXTT4=
EXTT5=
EXTT6=
EXTT7=
EXTT8=
EXTT9=
EXTT10=
EXTT11=
EXTT12=
EXTT13=
PLAYORDER=
